<?xml version="1.0" encoding="utf-8"?>
<!-- Generator: Adobe Illustrator 24.1.1, SVG Export Plug-In . SVG Version: 6.00 Build 0)  -->
<svg version="1.1" id="Layer_1" xmlns="http://www.w3.org/2000/svg" xmlns:xlink="http://www.w3.org/1999/xlink" x="0px" y="0px"
	 viewBox="0 0 551 65" style="enable-background:new 0 0 551 65;" xml:space="preserve">
<style type="text/css">
	.st0{fill:#BF1F2B;}
	.st1{fill:#FFFFFF;}
</style>
<g id="Logotipo_1_">
	<path class="st0" d="M54.83,0.59v63.81h-7.48L9.06,16.82v47.59h-9.12V0.59h7.48l38.29,47.59V0.59H54.83z"/>
	<path class="st0" d="M109.79,56.48v7.93H63.48V0.59h45.03v7.93H72.6v19.6h32v7.75h-32v20.6H109.79z"/>
	<path class="st0" d="M212.31,0.59l-21.33,63.81h-9.57L164,13.45l-17.41,50.96h-9.75L115.5,0.59h9.39l17.23,51.87l17.96-51.87h8.39
		l17.6,52.14l17.59-52.14H212.31z"/>
	<path class="st0" d="M222.14,62.9c-4.47-1.49-7.98-3.42-10.53-5.79l3.37-7.11c2.43,2.19,5.55,3.96,9.34,5.33
		c3.8,1.37,7.7,2.05,11.71,2.05c5.29,0,9.24-0.9,11.85-2.69c2.61-1.79,3.92-4.18,3.92-7.16c0-2.19-0.71-3.96-2.14-5.33
		c-1.43-1.37-3.19-2.42-5.29-3.15c-2.1-0.73-5.06-1.55-8.89-2.46c-4.8-1.15-8.68-2.31-11.62-3.46c-2.95-1.15-5.47-2.93-7.57-5.33
		c-2.1-2.4-3.15-5.64-3.15-9.71c0-3.4,0.9-6.47,2.69-9.21s4.51-4.92,8.16-6.56c3.65-1.64,8.17-2.46,13.58-2.46
		c3.77,0,7.47,0.49,11.12,1.46c3.65,0.97,6.78,2.37,9.39,4.19l-3.01,7.29c-2.68-1.7-5.53-2.99-8.57-3.87
		c-3.04-0.88-6.02-1.32-8.93-1.32c-5.17,0-9.04,0.94-11.62,2.83c-2.58,1.88-3.87,4.32-3.87,7.29c0,2.19,0.73,3.97,2.19,5.33
		c1.46,1.37,3.27,2.43,5.42,3.19c2.16,0.76,5.09,1.57,8.8,2.42c4.8,1.15,8.66,2.31,11.58,3.46c2.92,1.15,5.42,2.92,7.52,5.29
		c2.1,2.37,3.15,5.56,3.15,9.57c0,3.34-0.91,6.4-2.73,9.16c-1.82,2.77-4.59,4.95-8.3,6.56c-3.71,1.61-8.27,2.42-13.67,2.42
		C231.24,65.14,226.61,64.39,222.14,62.9z"/>
	<path class="st1" d="M314.8,64.41l-13.04-18.69c-0.55,0.06-1.37,0.09-2.46,0.09h-14.4v18.6h-11.85V0.59h26.25
		c5.53,0,10.35,0.91,14.45,2.73s7.25,4.44,9.43,7.84c2.19,3.4,3.28,7.45,3.28,12.12c0,4.8-1.17,8.93-3.51,12.4
		c-2.34,3.46-5.7,6.05-10.07,7.75l14.68,20.97H314.8z M310.52,13.9c-2.68-2.19-6.6-3.28-11.76-3.28H284.9v25.43h13.86
		c5.17,0,9.09-1.11,11.76-3.33c2.67-2.22,4.01-5.36,4.01-9.44C314.53,19.22,313.19,16.09,310.52,13.9z"/>
	<path class="st1" d="M347.41,61.08c-5.23-2.83-9.33-6.75-12.31-11.76c-2.98-5.01-4.47-10.62-4.47-16.82s1.49-11.81,4.47-16.82
		c2.98-5.01,7.08-8.93,12.31-11.76c5.23-2.83,11.09-4.24,17.59-4.24s12.37,1.41,17.6,4.24c5.23,2.83,9.33,6.73,12.31,11.71
		c2.98,4.98,4.47,10.61,4.47,16.87c0,6.26-1.49,11.88-4.47,16.87c-2.98,4.98-7.08,8.89-12.31,11.71c-5.23,2.83-11.09,4.24-17.6,4.24
		S352.64,63.91,347.41,61.08z M376.49,52.06c3.4-1.92,6.08-4.59,8.02-8.02c1.94-3.43,2.92-7.28,2.92-11.53
		c0-4.25-0.97-8.1-2.92-11.53c-1.95-3.43-4.62-6.11-8.02-8.02c-3.4-1.92-7.23-2.87-11.49-2.87c-4.25,0-8.08,0.96-11.49,2.87
		c-3.4,1.91-6.08,4.59-8.02,8.02c-1.95,3.44-2.92,7.28-2.92,11.53c0,4.25,0.97,8.1,2.92,11.53c1.94,3.44,4.62,6.11,8.02,8.02
		c3.4,1.91,7.23,2.87,11.49,2.87C369.26,54.93,373.09,53.97,376.49,52.06z"/>
	<path class="st1" d="M422.67,61.08c-5.23-2.83-9.33-6.75-12.31-11.76c-2.98-5.01-4.47-10.62-4.47-16.82s1.49-11.81,4.47-16.82
		c2.98-5.01,7.08-8.93,12.31-11.76c5.23-2.83,11.09-4.24,17.59-4.24s12.37,1.41,17.6,4.24c5.23,2.83,9.33,6.73,12.31,11.71
		c2.98,4.98,4.47,10.61,4.47,16.87c0,6.26-1.49,11.88-4.47,16.87c-2.98,4.98-7.08,8.89-12.31,11.71c-5.23,2.83-11.09,4.24-17.6,4.24
		S427.9,63.91,422.67,61.08z M451.75,52.06c3.4-1.92,6.08-4.59,8.02-8.02c1.94-3.43,2.92-7.28,2.92-11.53
		c0-4.25-0.97-8.1-2.92-11.53c-1.95-3.43-4.62-6.11-8.02-8.02c-3.4-1.92-7.23-2.87-11.49-2.87s-8.08,0.96-11.49,2.87
		c-3.4,1.91-6.08,4.59-8.02,8.02c-1.95,3.44-2.92,7.28-2.92,11.53c0,4.25,0.97,8.1,2.92,11.53c1.94,3.44,4.62,6.11,8.02,8.02
		c3.4,1.91,7.23,2.87,11.49,2.87S448.35,53.97,451.75,52.06z"/>
	<path class="st1" d="M539.84,64.41l-0.09-42.3l-20.97,35.01h-5.29l-20.97-34.46v41.75h-11.3V0.59h9.76l25.34,42.3l24.89-42.3h9.75
		l0.09,63.81H539.84z"/>
</g>
</svg>
